<svg xmlns="http://www.w3.org/2000/svg" viewBox="0 0 33 32" xml:space="preserve"><g fill="#828282"><path d="M1.5 32h21c.827 0 1.5-.673 1.5-1.5V23c0-.01-.005-.018-.006-.028.055-.035.112-.068.166-.105l7.986 7.986a.5.5 0 1 0 .708-.706l-7.913-7.913A6.479 6.479 0 0 0 27 17.5a6.494 6.494 0 0 0-3.006-5.472c.001-.01.006-.018.006-.028V9.5c0-.017-.008-.031-.009-.047-.002-.023-.008-.043-.013-.065a.488.488 0 0 0-.09-.191c-.007-.009-.006-.02-.013-.029l-8-9c-.003-.003-.007-.003-.01-.006a.49.49 0 0 0-.223-.134c-.019-.006-.036-.008-.056-.011C15.557.012 15.53 0 15.5 0h-14C.673 0 0 .673 0 1.5v29c0 .827.673 1.5 1.5 1.5zM26 17.5c0 3.033-2.468 5.5-5.5 5.5S15 20.533 15 17.5s2.468-5.5 5.5-5.5 5.5 2.467 5.5 5.5zM16 1.815 22.387 9H16.5c-.22 0-.5-.42-.5-.75V1.815zM1 1.5a.5.5 0 0 1 .5-.5H15v7.25c0 .809.655 1.75 1.5 1.75H23v1.501A6.475 6.475 0 0 0 15.821 13H5.5a.5.5 0 0 0 0 1h9.532a6.442 6.442 0 0 0-1.006 3H5.5a.5.5 0 0 0 0 1h8.525a6.454 6.454 0 0 0 1.006 3H5.5a.5.5 0 0 0 0 1h10.25c.021 0 .039-.009.06-.012a6.476 6.476 0 0 0 7.19 1.51V30.5a.5.5 0 0 1-.5.5h-21c-.28 0-.5-.22-.5-.5v-29z"/><path d="M5.5 10h6a.5.5 0 0 0 0-1h-6a.5.5 0 0 0 0 1zm0 16h13a.5.5 0 0 0 0-1h-13a.5.5 0 0 0 0 1z"/></g></svg>